<svg width="0" height="0" class="hidden">
  <symbol fill="#fff" height="100px" width="100px" xmlns="http://www.w3.org/2000/svg" viewBox="0 0 24 24" id="linkedin">
    <path d="M19 0h-14c-2.761 0-5 2.239-5 5v14c0 2.761 2.239 5 5 5h14c2.762 0 5-2.239 5-5v-14c0-2.761-2.238-5-5-5zm-11 19h-3v-11h3v11zm-1.5-12.268c-.966 0-1.75-.79-1.75-1.764s.784-1.764 1.75-1.764 1.75.79 1.75 1.764-.783 1.764-1.75 1.764zm13.5 12.268h-3v-5.604c0-3.368-4-3.113-4 0v5.604h-3v-11h3v1.765c1.396-2.586 7-2.777 7 2.476v6.759z"></path>
  </symbol>
  <symbol fill="#fff" height="100px" width="100px" xmlns="http://www.w3.org/2000/svg" viewBox="0 0 30 30" id="twitter">
    <path d="M28,6.937c-0.957,0.425-1.985,0.711-3.064,0.84c1.102-0.66,1.947-1.705,2.345-2.951c-1.03,0.611-2.172,1.055-3.388,1.295 c-0.973-1.037-2.359-1.685-3.893-1.685c-2.946,0-5.334,2.389-5.334,5.334c0,0.418,0.048,0.826,0.138,1.215 c-4.433-0.222-8.363-2.346-10.995-5.574C3.351,6.199,3.088,7.115,3.088,8.094c0,1.85,0.941,3.483,2.372,4.439 c-0.874-0.028-1.697-0.268-2.416-0.667c0,0.023,0,0.044,0,0.067c0,2.585,1.838,4.741,4.279,5.23 c-0.447,0.122-0.919,0.187-1.406,0.187c-0.343,0-0.678-0.034-1.003-0.095c0.679,2.119,2.649,3.662,4.983,3.705 c-1.825,1.431-4.125,2.284-6.625,2.284c-0.43,0-0.855-0.025-1.273-0.075c2.361,1.513,5.164,2.396,8.177,2.396 c9.812,0,15.176-8.128,15.176-15.177c0-0.231-0.005-0.461-0.015-0.69C26.38,8.945,27.285,8.006,28,6.937z"></path>
  </symbol>
  <symbol fill="#fff" height="100px" width="100px" version="1.1" id="youtube" xmlns="http://www.w3.org/2000/svg" xmlns:xlink="http://www.w3.org/1999/xlink" x="0px" y="0px" xml:space="preserve" viewBox="0 0 461.001 461.001">
    <g>
      <path d="M365.257,67.393H95.744C42.866,67.393,0,110.259,0,163.137v134.728
		c0,52.878,42.866,95.744,95.744,95.744h269.513c52.878,0,95.744-42.866,95.744-95.744V163.137
		C461.001,110.259,418.135,67.393,365.257,67.393z M300.506,237.056l-126.06,60.123c-3.359,1.602-7.239-0.847-7.239-4.568V168.607
		c0-3.774,3.982-6.22,7.348-4.514l126.06,63.881C304.363,229.873,304.298,235.248,300.506,237.056z"></path>
    </g>
    <g></g>
    <g></g>
    <g></g>
    <g></g>
    <g></g>
    <g></g>
    <g></g>
    <g></g>
    <g></g>
    <g></g>
    <g></g>
    <g></g>
    <g></g>
    <g></g>
    <g></g>
  </symbol>
  <symbol fill="#0e4059" height="100px" width="100px" enable-background="new 0 0 128 128" id="codepen" version="1.1" xml:space="preserve" xmlns="http://www.w3.org/2000/svg" xmlns:xlink="http://www.w3.org/1999/xlink" viewBox="0 0 128 128">
    <g id="_x36__stroke">
      <g id="codepen">
        <rect clip-rule="evenodd" fill-rule="evenodd" height="128" width="128"></rect>
        <path clip-rule="evenodd" d="M117,73.204L103.24,64L117,54.796V73.204z     M69.5,112.22V86.568L93.348,70.62l19.248,12.872L69.5,112.22z M64,77.012L44.548,64L64,50.988L83.456,64L64,77.012z M58.5,112.22    L15.404,83.492L34.656,70.62L58.5,86.568V112.22z M11,54.796L24.764,64L11,73.204V54.796z M58.5,15.78v25.652L34.656,57.384    L15.404,44.508L58.5,15.78z M69.5,15.78l43.096,28.728L93.348,57.384L69.5,41.432V15.78z M127.952,43.784    c-0.012-0.084-0.032-0.16-0.044-0.24c-0.028-0.156-0.056-0.312-0.096-0.46c-0.024-0.092-0.06-0.18-0.088-0.268    c-0.044-0.136-0.088-0.268-0.14-0.4c-0.036-0.092-0.08-0.184-0.124-0.268c-0.056-0.128-0.116-0.248-0.188-0.364    c-0.048-0.088-0.104-0.172-0.156-0.256c-0.072-0.116-0.148-0.228-0.232-0.336c-0.06-0.08-0.124-0.16-0.188-0.236    c-0.088-0.104-0.18-0.204-0.276-0.3c-0.072-0.072-0.14-0.148-0.216-0.212c-0.104-0.092-0.208-0.18-0.312-0.264    c-0.084-0.064-0.164-0.128-0.248-0.188c-0.032-0.02-0.06-0.048-0.092-0.068l-58.5-39c-1.848-1.232-4.252-1.232-6.104,0l-58.496,39    c-0.032,0.02-0.06,0.048-0.092,0.068c-0.088,0.06-0.168,0.124-0.248,0.188C2.004,40.264,1.9,40.352,1.8,40.444    c-0.076,0.064-0.148,0.14-0.22,0.212c-0.096,0.096-0.188,0.196-0.272,0.3c-0.068,0.076-0.132,0.156-0.192,0.236    c-0.08,0.108-0.156,0.22-0.228,0.336c-0.056,0.084-0.108,0.168-0.16,0.256C0.66,41.9,0.6,42.02,0.54,42.148    c-0.04,0.084-0.084,0.176-0.12,0.268c-0.056,0.132-0.1,0.264-0.144,0.4c-0.028,0.088-0.06,0.176-0.084,0.268    c-0.04,0.148-0.068,0.304-0.096,0.46c-0.016,0.08-0.036,0.156-0.044,0.24C0.02,44.016,0,44.256,0,44.5v39    c0,0.24,0.02,0.48,0.052,0.72c0.008,0.076,0.028,0.156,0.044,0.236c0.028,0.156,0.056,0.308,0.096,0.46    c0.024,0.092,0.056,0.18,0.084,0.268c0.044,0.132,0.088,0.268,0.144,0.404c0.036,0.088,0.08,0.176,0.12,0.264    c0.06,0.124,0.12,0.244,0.188,0.368c0.052,0.084,0.104,0.168,0.16,0.252c0.072,0.116,0.148,0.224,0.228,0.332    c0.06,0.084,0.124,0.164,0.192,0.24c0.084,0.1,0.176,0.204,0.272,0.296c0.072,0.076,0.144,0.148,0.22,0.216    c0.1,0.092,0.204,0.18,0.312,0.264c0.08,0.064,0.16,0.128,0.248,0.188c0.032,0.02,0.06,0.048,0.092,0.068l58.496,39    C61.872,127.692,62.936,128,64,128s2.128-0.308,3.052-0.924l58.5-39c0.032-0.02,0.06-0.048,0.092-0.068    c0.084-0.06,0.164-0.124,0.248-0.188c0.104-0.084,0.208-0.172,0.312-0.264c0.076-0.068,0.144-0.14,0.216-0.216    c0.096-0.092,0.188-0.196,0.276-0.296c0.064-0.076,0.128-0.156,0.188-0.24c0.084-0.108,0.16-0.216,0.232-0.332    c0.052-0.084,0.108-0.168,0.156-0.252c0.072-0.124,0.132-0.244,0.188-0.368c0.044-0.088,0.088-0.176,0.124-0.264    c0.052-0.136,0.096-0.272,0.14-0.404c0.028-0.088,0.064-0.176,0.088-0.268c0.04-0.152,0.068-0.304,0.096-0.46    c0.012-0.08,0.032-0.16,0.044-0.236c0.032-0.24,0.048-0.48,0.048-0.72v-39C128,44.256,127.984,44.016,127.952,43.784z" fill="#fff" fill-rule="evenodd" id="Codepen_1_"></path>
      </g>
    </g>
  </symbol>
  <symbol fill="#fff" height="100px" width="100px" xmlns="http://www.w3.org/2000/svg" viewBox="0 0 71 55" id="discord">
    <g clip-path="url(#clip0)">
      <path d="M60.1045 4.8978C55.5792 2.8214 50.7265 1.2916 45.6527 0.41542C45.5603 0.39851 45.468 0.440769 45.4204 0.525289C44.7963 1.6353 44.105 3.0834 43.6209 4.2216C38.1637 3.4046 32.7345 3.4046 27.3892 4.2216C26.905 3.0581 26.1886 1.6353 25.5617 0.525289C25.5141 0.443589 25.4218 0.40133 25.3294 0.41542C20.2584 1.2888 15.4057 2.8186 10.8776 4.8978C10.8384 4.9147 10.8048 4.9429 10.7825 4.9795C1.57795 18.7309 -0.943561 32.1443 0.293408 45.3914C0.299005 45.4562 0.335386 45.5182 0.385761 45.5576C6.45866 50.0174 12.3413 52.7249 18.1147 54.5195C18.2071 54.5477 18.305 54.5139 18.3638 54.4378C19.7295 52.5728 20.9469 50.6063 21.9907 48.5383C22.0523 48.4172 21.9935 48.2735 21.8676 48.2256C19.9366 47.4931 18.0979 46.6 16.3292 45.5858C16.1893 45.5041 16.1781 45.304 16.3068 45.2082C16.679 44.9293 17.0513 44.6391 17.4067 44.3461C17.471 44.2926 17.5606 44.2813 17.6362 44.3151C29.2558 49.6202 41.8354 49.6202 53.3179 44.3151C53.3935 44.2785 53.4831 44.2898 53.5502 44.3433C53.9057 44.6363 54.2779 44.9293 54.6529 45.2082C54.7816 45.304 54.7732 45.5041 54.6333 45.5858C52.8646 46.6197 51.0259 47.4931 49.0921 48.2228C48.9662 48.2707 48.9102 48.4172 48.9718 48.5383C50.038 50.6034 51.2554 52.5699 52.5959 54.435C52.6519 54.5139 52.7526 54.5477 52.845 54.5195C58.6464 52.7249 64.529 50.0174 70.6019 45.5576C70.6551 45.5182 70.6887 45.459 70.6943 45.3942C72.1747 30.0791 68.2147 16.7757 60.1968 4.9823C60.1772 4.9429 60.1437 4.9147 60.1045 4.8978ZM23.7259 37.3253C20.2276 37.3253 17.3451 34.1136 17.3451 30.1693C17.3451 26.225 20.1717 23.0133 23.7259 23.0133C27.308 23.0133 30.1626 26.2532 30.1066 30.1693C30.1066 34.1136 27.28 37.3253 23.7259 37.3253ZM47.3178 37.3253C43.8196 37.3253 40.9371 34.1136 40.9371 30.1693C40.9371 26.225 43.7636 23.0133 47.3178 23.0133C50.9 23.0133 53.7545 26.2532 53.6986 30.1693C53.6986 34.1136 50.9 37.3253 47.3178 37.3253Z"></path>
    </g>
    <defs>
      <clipPath id="clip0">
        <rect width="71" height="55" fill="#5462eb"></rect>
      </clipPath>
    </defs>
  </symbol>
  <symbol version="1.0" height="100px" width="100px" xmlns="http://www.w3.org/2000/svg" preserveAspectRatio="xMidYMid meet" viewBox="0 0 1280.000000 914.000000" id="email">
    <metadata>Created by potrace 1.15, written by Peter Selinger 2001-2017</metadata>
    <g transform="translate(0.000000,914.000000) scale(0.100000,-0.100000)" fill="#fff" stroke="none">
      <path d="M1195 9129 c-510 -65 -953 -428 -1121 -921 -71 -209 -65 100 -70
-3578 -2 -2270 0 -3345 7 -3410 26 -237 116 -468 257 -660 66 -91 204 -229
290 -290 144 -103 334 -190 511 -232 85 -20 117 -21 2261 -29 1196 -5 3552 -8
5235 -6 l3060 3 85 21 c137 34 207 60 335 123 409 202 684 594 744 1059 8 59
11 1079 11 3445 -1 2774 -3 3371 -14 3416 -42 173 -109 327 -202 467 -71 107
-203 246 -313 329 -88 67 -300 177 -399 208 -30 10 -95 27 -145 39 l-92 22
-5185 1 c-2961 1 -5215 -2 -5255 -7z m7845 -3165 c-1678 -1678 -2471 -2465
-2505 -2485 -69 -40 -150 -41 -217 -1 -29 17 -948 928 -2507 2485 l-2461 2457
5072 0 5073 0 -2455 -2456z m3070 -1326 l-5 -3423 -22 -77 c-58 -204 -153
-318 -326 -391 l-72 -30 -1727 1734 -1727 1734 1937 1938 c1065 1065 1939
1937 1942 1937 3 0 3 -1540 0 -3422z m-9430 1487 l1905 -1905 -1747 -1747
-1747 -1747 -62 29 c-123 59 -208 173 -246 330 -16 65 -18 301 -20 3508 -2
1890 0 3437 4 3437 5 0 865 -857 1913 -1905z m3005 -3000 c451 -455 620 -619
649 -631 50 -20 133 -20 182 1 28 11 207 184 634 610 l595 595 1503 -1503
c826 -826 1502 -1504 1502 -1507 0 -3 -1964 -5 -4365 -5 -2401 0 -4365 2
-4365 5 0 6 3043 3050 3050 3050 3 0 280 -276 615 -615z"></path>
    </g>
  </symbol>
  <symbol fill="#fff"  height="100px" width="100px" xmlns="http://www.w3.org/2000/svg" viewBox="0 0 24 24" id="github">
    <path d="M12 0c-6.626 0-12 5.373-12 12 0 5.302 3.438 9.8 8.207 11.387.599.111.793-.261.793-.577v-2.234c-3.338.726-4.033-1.416-4.033-1.416-.546-1.387-1.333-1.756-1.333-1.756-1.089-.745.083-.729.083-.729 1.205.084 1.839 1.237 1.839 1.237 1.07 1.834 2.807 1.304 3.492.997.107-.775.418-1.305.762-1.604-2.665-.305-5.467-1.334-5.467-5.931 0-1.311.469-2.381 1.236-3.221-.124-.303-.535-1.524.117-3.176 0 0 1.008-.322 3.301 1.23.957-.266 1.983-.399 3.003-.404 1.02.005 2.047.138 3.006.404 2.291-1.552 3.297-1.23 3.297-1.23.653 1.653.242 2.874.118 3.176.77.84 1.235 1.911 1.235 3.221 0 4.609-2.807 5.624-5.479 5.921.43.372.823 1.102.823 2.222v3.293c0 .319.192.694.801.576 4.765-1.589 8.199-6.086 8.199-11.386 0-6.627-5.373-12-12-12z"></path>
  </symbol>
  <symbol fill="#fff" height="100px" width="100px" xmlns="http://www.w3.org/2000/svg" viewBox="0 0 30 30" id="facebook">
    <path d="M24,4H6C4.895,4,4,4.895,4,6v18c0,1.105,0.895,2,2,2h10v-9h-3v-3h3v-1.611C16,9.339,17.486,8,20.021,8 c1.214,0,1.856,0.09,2.16,0.131V11h-1.729C19.376,11,19,11.568,19,12.718V14h3.154l-0.428,3H19v9h5c1.105,0,2-0.895,2-2V6 C26,4.895,25.104,4,24,4z"></path>
  </symbol>
  <symbol fill="#fff" height="100px" width="100px" xmlns="http://www.w3.org/2000/svg" viewBox="0 0 30 30" id="instagram">
    <path d="M 9.9980469 3 C 6.1390469 3 3 6.1419531 3 10.001953 L 3 20.001953 C 3 23.860953 6.1419531 27 10.001953 27 L 20.001953 27 C 23.860953 27 27 23.858047 27 19.998047 L 27 9.9980469 C 27 6.1390469 23.858047 3 19.998047 3 L 9.9980469 3 z M 22 7 C 22.552 7 23 7.448 23 8 C 23 8.552 22.552 9 22 9 C 21.448 9 21 8.552 21 8 C 21 7.448 21.448 7 22 7 z M 15 9 C 18.309 9 21 11.691 21 15 C 21 18.309 18.309 21 15 21 C 11.691 21 9 18.309 9 15 C 9 11.691 11.691 9 15 9 z M 15 11 A 4 4 0 0 0 11 15 A 4 4 0 0 0 15 19 A 4 4 0 0 0 19 15 A 4 4 0 0 0 15 11 z"></path>
  </symbol>
</svg>